<svg width="30" height="31" viewBox="0 0 30 31" fill="none" xmlns="http://www.w3.org/2000/svg">
<g clip-path="url(#clip0_182_5755)">
<path d="M2.86268 15.4621C2.69082 14.104 2.82259 12.7247 3.24849 11.4236C3.67438 10.1226 4.38378 8.93232 5.3255 7.93871L9.83112 3.43262C7.11267 3.77163 4.61219 5.09354 2.80119 7.14907C0.9902 9.20461 -0.00614933 11.8517 2.85581e-05 14.5912V30.0309C2.85581e-05 30.1552 0.0494146 30.2744 0.137322 30.3624C0.22523 30.4503 0.344458 30.4996 0.468779 30.4996H4.21128C4.27777 30.4997 4.34351 30.4856 4.40414 30.4583C4.46476 30.431 4.51889 30.3911 4.56291 30.3413C4.60693 30.2914 4.63985 30.2328 4.65948 30.1693C4.67911 30.1057 4.68499 30.0388 4.67675 29.9728L2.86268 15.4621Z" fill="#A82424"/>
<path d="M5.76953 8.81965L8.0275 9.82324C8.96058 10.2385 9.75334 10.9153 10.3099 11.7716C10.8664 12.628 11.1629 13.6272 11.1634 14.6486C11.1634 17.4741 12.2859 20.1839 14.2838 22.1819C16.2818 24.1799 18.9916 25.3023 21.8172 25.3023H23.5642C23.6258 25.3024 23.6869 25.2902 23.7438 25.2667C23.8008 25.2431 23.8525 25.2085 23.8961 25.165L29.8623 19.1987C29.9503 19.1108 29.9997 18.9916 29.9997 18.8673V17.1198C29.9997 14.2943 28.8772 11.5844 26.8793 9.58646C24.8813 7.5885 22.1715 6.46605 19.3459 6.46605C18.3246 6.46551 17.3253 6.16904 16.469 5.6125C15.6126 5.05596 14.9359 4.2632 14.5206 3.33012L13.7941 1.69605C13.7631 1.62656 13.7157 1.56565 13.656 1.51856C13.5962 1.47148 13.5259 1.43964 13.4511 1.4258C13.3763 1.41195 13.2993 1.41652 13.2267 1.43911C13.154 1.46169 13.088 1.50161 13.0342 1.55543L5.76953 8.81965Z" fill="#A82424"/>
<path d="M25.8847 2.62657C25.2226 1.96307 24.4051 1.47574 23.5065 1.20896C22.608 0.942178 21.6569 0.904421 20.7401 1.09913C19.8232 1.29383 18.9696 1.71482 18.257 2.32374C17.5444 2.93266 16.9955 3.71018 16.6602 4.58548C17.1596 4.97978 17.7397 5.25922 18.3594 5.40392C18.6637 4.50031 19.3011 3.74673 20.1417 3.29674C20.9823 2.84675 21.9628 2.73421 22.8835 2.98206C23.8042 3.22991 24.5958 3.81949 25.0969 4.63067C25.598 5.44184 25.7709 6.41357 25.5805 7.34782C26.146 7.70934 26.6792 8.11898 27.1742 8.5722C27.5526 7.56192 27.6322 6.4641 27.4035 5.40982C27.1748 4.35553 26.6476 3.38933 25.8847 2.62657Z" fill="#A82424"/>
<path d="M8.64833 19.8618C8.19627 19.4115 7.86686 18.8531 7.69141 18.2396C7.51596 17.6261 7.50029 16.9779 7.64591 16.3567C7.79152 15.7355 8.09356 15.1618 8.52335 14.6901C8.95313 14.2185 9.49638 13.8646 10.1015 13.6621C9.9561 13.0422 9.67568 12.462 9.28021 11.9629C7.90578 12.5054 6.80023 13.5673 6.20274 14.9188C5.60525 16.2702 5.56387 17.8026 6.08755 19.1843C6.61124 20.566 7.65788 21.686 9.00102 22.302C10.3442 22.9179 11.8758 22.9803 13.2646 22.4755C12.8114 21.9806 12.4019 21.4474 12.0407 20.8818C11.435 21.0047 10.8082 20.9759 10.2164 20.798C9.62448 20.62 9.08581 20.2984 8.64833 19.8618Z" fill="#A82424"/>
</g>
<defs>
<clipPath id="clip0_182_5755">
<rect width="30" height="30" fill="white" transform="translate(0 0.5)"/>
</clipPath>
</defs>
</svg>
