<svg width="31" height="24" viewBox="0 0 31 24" fill="none" xmlns="http://www.w3.org/2000/svg">
<path d="M27.095 1.88306C26.5658 2.75141 25.9305 3.9755 25.9526 4.86042C25.029 4.31024 25.8377 2.60337 26.4818 1.51739C26.4586 1.50634 26.442 1.49308 26.421 1.48093C25.7803 1.15502 25.1804 0.928543 24.6048 0.780504C24.3408 1.77148 24.0579 3.21431 24.3518 4.09039C23.2791 3.82746 23.595 1.86649 23.9066 0.642408C23.099 0.535246 22.3411 0.618103 21.6065 0.8954C21.7954 1.90295 22.16 3.31263 22.7963 3.97329C21.7589 4.18651 21.2043 2.43766 20.9436 1.20253C20.4398 1.47761 19.9427 1.83887 19.4411 2.30177C19.8764 3.21762 20.5492 4.40415 21.2949 4.86704C20.3967 5.30453 19.4776 3.93683 18.9097 2.82875C18.0911 3.68494 17.2482 4.78529 16.3433 6.14305C16.0826 6.10328 15.6794 6.10328 15.3866 6.11101C15.0894 6.10328 14.6763 6.10218 14.4122 6.14305C13.5052 4.78529 12.6634 3.68494 11.8436 2.82875C11.2736 3.93572 10.3588 5.30343 9.45732 4.86594C10.203 4.40415 10.8758 3.21652 11.3111 2.30067C10.8073 1.83777 10.3091 1.47651 9.80643 1.20142C9.5457 2.43876 8.99111 4.18651 7.95152 3.97329C8.58897 3.31153 8.95355 1.90074 9.14246 0.894296C8.4089 0.616999 7.65102 0.535246 6.84233 0.641304C7.15167 1.86539 7.46653 3.82635 6.39711 4.08929C6.68988 3.21321 6.40705 1.77038 6.14302 0.7794C5.56854 0.928544 4.96975 1.15502 4.32898 1.48093C4.30799 1.49198 4.28921 1.50744 4.26822 1.51739C4.91451 2.60337 5.7221 4.31024 4.79741 4.86042C4.82061 3.97439 4.18647 2.75141 3.65618 1.88306C0.170634 4.24506 -0.460189 9.75012 1.39472 12.2701C1.98135 13.0357 4.19089 15.4982 6.40043 13.6312C8.60996 11.7663 6.5562 9.31816 5.60499 9.10936C5.21059 10.2075 6.33083 11.2858 5.2603 11.183C2.63648 10.803 2.60223 8.17914 5.6061 5.9696C8.29952 4.10475 10.4737 8.04105 10.4737 8.04105C10.4737 8.04105 7.1594 6.0381 5.95079 6.69433C4.74217 7.35056 6.01928 7.66101 6.50317 8.52273C6.98595 9.38555 9.33359 10.4229 9.09275 11.1819C8.67846 14.7371 11.4404 17.0515 11.8547 18.0182C12.269 18.9849 12.5452 23.3664 15.1668 23.404H15.169C15.1756 23.404 15.4109 23.404 15.5811 23.404H15.5833C18.2049 23.3664 18.4811 18.9849 18.8954 18.0182C19.3097 17.0515 22.0716 14.7359 21.6573 11.1819C21.4153 10.4218 23.763 9.38665 24.2469 8.52383C24.7308 7.66211 26.0101 7.35056 24.7992 6.69544C23.5906 6.0392 20.2763 8.04215 20.2763 8.04215C20.2763 8.04215 22.4516 4.10586 25.1439 5.97071C28.1478 8.18025 28.1136 10.8041 25.4886 11.1841C24.4192 11.288 25.5394 10.2086 25.1439 9.11267C24.1949 9.32037 22.1401 11.7707 24.3496 13.6345C26.5591 15.4993 28.7687 13.0412 29.3531 12.2734C31.2102 9.75123 30.5794 4.24396 27.095 1.88306ZM9.3833 9.93793C9.00216 9.85729 7.17708 8.56802 6.92961 8.15705C6.68325 7.74828 6.32641 7.2898 6.35513 7.20584C6.53631 6.69323 10.0009 8.06866 10.0009 8.79781C10.0009 9.30711 9.92464 10.0517 9.3833 9.93793ZM11.4404 16.4992C11.141 16.6417 10.118 14.9105 9.86498 14.2664C9.61199 13.6223 10.1014 12.9352 10.5698 12.9219C10.8615 13.1462 12.0966 16.1887 11.4404 16.4992ZM14.8309 22.8118C14.4277 22.8969 13.6731 22.3445 13.6864 22.002C13.6996 21.6595 14.2841 21.7424 14.4266 21.8153C14.5691 21.8904 15.2342 22.7267 14.8309 22.8118ZM15.918 22.8118C15.517 22.7267 16.1798 21.8904 16.3224 21.8153C16.4649 21.7424 17.0493 21.6584 17.0625 22.002C17.0769 22.3456 16.3224 22.8969 15.918 22.8118ZM24.3949 7.20474C24.4214 7.2887 24.0646 7.74718 23.8193 8.15594C23.573 8.56692 21.7468 9.85618 21.3656 9.93572C20.8243 10.0506 20.7458 9.30601 20.7458 8.79671C20.7481 8.06867 24.2137 6.69212 24.3949 7.20474ZM20.8839 14.2664C20.631 14.9116 19.6113 16.6417 19.3085 16.4992C18.6523 16.1887 19.8874 13.1462 20.1791 12.9219C20.6486 12.9341 21.138 13.6212 20.8839 14.2664Z" fill="#A82424"/>
</svg>
