<svg width="31" height="31" viewBox="0 0 31 31" fill="none" xmlns="http://www.w3.org/2000/svg">
<g clip-path="url(#clip0_182_5678)">
<path d="M3.70729 10.2786C5.49792 11.3126 8.11354 10.1506 9.53292 7.68824C10.5421 5.94027 10.7146 3.99121 10.0289 2.61824C9.99322 2.55258 9.94228 2.49647 9.88036 2.45467C9.81844 2.41287 9.74736 2.3866 9.67313 2.37809C9.59891 2.36958 9.52373 2.37909 9.45395 2.40579C9.38418 2.4325 9.32187 2.47563 9.27229 2.53152L6.28589 5.81277L7.63354 1.58511C7.65678 1.51439 7.66268 1.43911 7.65074 1.36563C7.6388 1.29214 7.60938 1.2226 7.56494 1.16287C7.52051 1.10313 7.46237 1.05495 7.39543 1.02239C7.32848 0.989822 7.25469 0.973823 7.18026 0.97574C5.64886 1.06949 4.04714 2.19449 3.03792 3.94011C1.6162 6.40058 1.91667 9.24496 3.70729 10.2786Z" fill="#A82424"/>
<path d="M18.7812 10.8125C19.5579 10.8125 20.1875 10.1829 20.1875 9.40625C20.1875 8.6296 19.5579 8 18.7812 8C18.0046 8 17.375 8.6296 17.375 9.40625C17.375 10.1829 18.0046 10.8125 18.7812 10.8125Z" fill="#A82424"/>
<path d="M12.2188 10.8125C12.9954 10.8125 13.625 10.1829 13.625 9.40625C13.625 8.6296 12.9954 8 12.2188 8C11.4421 8 10.8125 8.6296 10.8125 9.40625C10.8125 10.1829 11.4421 10.8125 12.2188 10.8125Z" fill="#A82424"/>
<path d="M24.875 16.0672C24.875 13.378 23.4542 11.2812 21.0153 10.0766C20.8554 10.6155 20.5066 11.0787 20.0329 11.3813C19.5592 11.6839 18.9923 11.8057 18.4361 11.7242C17.8799 11.6428 17.3717 11.3636 17.0046 10.9379C16.6375 10.5122 16.4362 9.96838 16.4375 9.40625C16.4386 9.25911 16.4533 9.11238 16.4816 8.96797C16.1614 8.94922 15.8347 8.9375 15.5 8.9375C15.1653 8.9375 14.8386 8.94922 14.5184 8.96797C14.5467 9.11238 14.5614 9.25911 14.5625 9.40625C14.5638 9.96838 14.3625 10.5122 13.9954 10.9379C13.6283 11.3636 13.1201 11.6428 12.5639 11.7242C12.0077 11.8057 11.4408 11.6839 10.9671 11.3813C10.4934 11.0787 10.1446 10.6155 9.98469 10.0766C7.54578 11.2812 6.125 13.378 6.125 16.0672C6.125 20.5737 10.22 25.8125 15.5 25.8125C20.78 25.8125 24.875 20.5737 24.875 16.0672ZM13.5622 14.7969L12.1559 17.2344C12.1252 17.2877 12.0842 17.3345 12.0354 17.372C11.9866 17.4095 11.9309 17.4371 11.8714 17.453C11.812 17.469 11.7499 17.4731 11.6889 17.4651C11.6278 17.4571 11.569 17.4372 11.5156 17.4064C11.408 17.3442 11.3294 17.2419 11.2972 17.1218C11.2651 17.0017 11.2819 16.8738 11.3441 16.7661L12.7503 14.3286C12.8125 14.2209 12.9149 14.1424 13.0349 14.1102C13.155 14.078 13.283 14.0949 13.3906 14.157C13.4982 14.2192 13.5766 14.3215 13.6088 14.4415C13.641 14.5614 13.6242 14.6893 13.5622 14.7969ZM15.9688 17.8438C15.9688 17.9681 15.9194 18.0873 15.8315 18.1752C15.7435 18.2631 15.6243 18.3125 15.5 18.3125C15.3757 18.3125 15.2565 18.2631 15.1685 18.1752C15.0806 18.0873 15.0312 17.9681 15.0312 17.8438V15.0312C15.0312 14.9069 15.0806 14.7877 15.1685 14.6998C15.2565 14.6119 15.3757 14.5625 15.5 14.5625C15.6243 14.5625 15.7435 14.6119 15.8315 14.6998C15.9194 14.7877 15.9688 14.9069 15.9688 15.0312V17.8438ZM19.4844 17.4041C19.431 17.4348 19.3722 17.4548 19.3111 17.4628C19.2501 17.4708 19.188 17.4667 19.1286 17.4507C19.0691 17.4347 19.0134 17.4072 18.9646 17.3697C18.9158 17.3321 18.8748 17.2854 18.8441 17.232L17.4378 14.7945C17.3757 14.6869 17.3588 14.5589 17.391 14.4388C17.4232 14.3188 17.5017 14.2164 17.6094 14.1542C17.717 14.0921 17.845 14.0752 17.9651 14.1074C18.0851 14.1396 18.1875 14.2181 18.2497 14.3258L19.6559 16.7633C19.6868 16.8166 19.7068 16.8755 19.7149 16.9366C19.723 16.9977 19.7189 17.0597 19.703 17.1192C19.6871 17.1788 19.6595 17.2345 19.622 17.2834C19.5845 17.3323 19.5377 17.3733 19.4844 17.4041Z" fill="#A82424"/>
<path d="M27.2925 10.2785C29.0831 9.2449 29.3836 6.40053 27.9619 3.93818C26.9527 2.19021 25.3509 1.06662 23.8195 0.973808C23.7448 0.971758 23.6708 0.987758 23.6036 1.02045C23.5364 1.05314 23.478 1.10156 23.4336 1.1616C23.3891 1.22164 23.3597 1.29152 23.348 1.36532C23.3363 1.43912 23.3426 1.51466 23.3663 1.58553L24.7139 5.81318L21.7275 2.53193C21.6779 2.47604 21.6156 2.43291 21.5458 2.40621C21.4761 2.3795 21.4009 2.37 21.3267 2.3785C21.2524 2.38701 21.1814 2.41328 21.1194 2.45508C21.0575 2.49688 21.0066 2.55299 20.9709 2.61865C20.2852 3.99162 20.4577 5.94068 21.4669 7.68865C22.8881 10.1505 25.5019 11.3126 27.2925 10.2785Z" fill="#A82424"/>
<path d="M5.19995 15.8641C5.21376 15.19 5.3146 14.5206 5.49995 13.8723L4.25167 13.1519C4.03635 13.0276 3.87923 12.8228 3.81489 12.5826C3.75054 12.3425 3.78423 12.0866 3.90854 11.8713L4.14292 11.4634C3.52833 11.3014 2.96618 10.9829 2.5112 10.5391L2.28338 10.9338C2.09851 11.2538 1.97852 11.6071 1.9303 11.9736C1.88207 12.34 1.90654 12.7124 2.00232 13.0694C2.09809 13.4264 2.26329 13.761 2.48847 14.054C2.71365 14.3471 2.99438 14.593 3.31463 14.7775L5.19995 15.8641Z" fill="#A82424"/>
<path d="M18.918 26.0634C19.5535 26.4547 20.0992 26.9759 20.5193 27.5929C20.9394 28.2098 21.2243 28.9085 21.3555 29.6433C21.3739 29.7472 21.4268 29.8419 21.5058 29.9119C21.5847 29.982 21.6849 30.0234 21.7903 30.0294C21.8957 30.0355 22 30.0057 22.0863 29.9451C22.1727 29.8845 22.2361 29.7965 22.2662 29.6953C22.5227 28.8333 22.5826 27.9247 22.4416 27.0364C22.3006 26.1482 21.9623 25.3028 21.4516 24.5625C20.6827 25.1807 19.8296 25.6861 18.918 26.0634Z" fill="#A82424"/>
<path d="M8.73319 29.6963C8.76333 29.7975 8.82671 29.8855 8.91309 29.9461C8.99947 30.0068 9.10379 30.0365 9.20915 30.0305C9.31452 30.0244 9.41477 29.983 9.49368 29.913C9.57259 29.8429 9.62554 29.7482 9.64397 29.6443C9.77511 28.9095 10.0601 28.2108 10.4801 27.5939C10.9002 26.9769 11.4459 26.4557 12.0815 26.0645C11.1707 25.6873 10.3184 25.1823 9.55022 24.5645C9.03924 25.3045 8.70061 26.1496 8.55922 27.0377C8.41783 27.9257 8.47728 28.8342 8.73319 29.6963Z" fill="#A82424"/>
<path d="M21.9375 24.15C22.6127 24.5351 23.195 25.0639 23.6431 25.6991C24.0911 26.3343 24.394 27.0602 24.5302 27.8255C24.5487 27.9292 24.6017 28.0237 24.6805 28.0936C24.7593 28.1636 24.8594 28.2049 24.9646 28.211C25.0698 28.217 25.174 28.1875 25.2603 28.1271C25.3466 28.0667 25.4101 27.9789 25.4405 27.878C25.7512 26.8329 25.7726 25.7232 25.5024 24.6669C25.2322 23.6106 24.6806 22.6474 23.9063 21.8799C23.3471 22.7156 22.6857 23.4782 21.9375 24.15Z" fill="#A82424"/>
<path d="M25.5253 18.2842C25.2643 19.3096 24.8614 20.2934 24.3281 21.2073C25.0217 21.5891 25.621 22.1212 26.0821 22.7648C26.5433 23.4083 26.8545 24.1469 26.993 24.9264C27.0116 25.0301 27.0646 25.1245 27.1435 25.1944C27.2223 25.2642 27.3224 25.3055 27.4276 25.3115C27.5328 25.3176 27.6369 25.2879 27.7232 25.2275C27.8095 25.1671 27.873 25.0793 27.9033 24.9784C28.2663 23.7545 28.2316 22.447 27.8043 21.2441C27.377 20.0411 26.5791 19.0048 25.5253 18.2842Z" fill="#A82424"/>
<path d="M7.09196 21.8809C6.31822 22.6481 5.76694 23.6107 5.49678 24.6664C5.22662 25.722 5.24769 26.8311 5.55774 27.8757C5.58788 27.9768 5.65127 28.0649 5.73765 28.1255C5.82403 28.1861 5.92834 28.2158 6.03371 28.2098C6.13907 28.2038 6.23932 28.1624 6.31824 28.0923C6.39715 28.0222 6.4501 27.9276 6.46852 27.8237C6.6048 27.0585 6.90764 26.3327 7.35559 25.6977C7.80355 25.0626 8.38566 24.5338 9.06071 24.1487C8.31249 23.4778 7.65111 22.7159 7.09196 21.8809Z" fill="#A82424"/>
<path d="M5.47503 18.2842C4.421 19.0045 3.62283 20.0409 3.19549 21.2439C2.76814 22.4469 2.73368 23.7545 3.09706 24.9784C3.1272 25.0795 3.19059 25.1676 3.27697 25.2282C3.36335 25.2888 3.46766 25.3185 3.57303 25.3125C3.67839 25.3065 3.77864 25.2651 3.85755 25.195C3.93646 25.1249 3.98942 25.0303 4.00784 24.9264C4.14627 24.1469 4.45747 23.4084 4.9186 22.7649C5.37973 22.1214 5.97909 21.5894 6.67269 21.2078C6.13918 20.2938 5.73607 19.3098 5.47503 18.2842Z" fill="#A82424"/>
<path d="M28.7166 10.9337L28.4873 10.5371C28.2697 10.7512 28.0259 10.9371 27.7617 11.0902C27.4781 11.2547 27.1739 11.3808 26.857 11.4652L27.0914 11.873C27.2151 12.0883 27.2484 12.3437 27.184 12.5835C27.1196 12.8232 26.9627 13.0276 26.7478 13.1518L25.5 13.8723C25.6854 14.5205 25.7862 15.1899 25.8 15.864L27.6853 14.7755C28.0053 14.591 28.2858 14.3453 28.5108 14.0523C28.7359 13.7594 28.901 13.425 28.9967 13.0682C29.0925 12.7115 29.117 12.3393 29.069 11.9731C29.0209 11.6068 28.9011 11.2536 28.7166 10.9337Z" fill="#A82424"/>
</g>
<defs>
<clipPath id="clip0_182_5678">
<rect width="30" height="30" fill="white" transform="translate(0.5 0.5)"/>
</clipPath>
</defs>
</svg>
