<svg width="31" height="31" viewBox="0 0 90 81" fill="none" xmlns="http://www.w3.org/2000/svg">
<path d="M6.67203 13.8735C6.67203 13.8735 6.81301 18.1335 7.23901 21.5425C7.66401 24.9485 8.65802 25.3745 9.08502 28.7835C9.51002 32.1895 8.80001 33.3265 9.22601 36.0245C9.65301 38.7215 13.201 37.7285 13.201 37.7285C13.059 35.4555 14.196 34.6035 15.332 32.1895C16.468 29.7755 20.584 27.9305 23.424 25.9425C26.263 23.9555 26.121 20.8305 25.269 17.1405C24.417 13.4485 20.869 16.2875 20.869 16.2875C20.869 16.2875 20.442 14.7275 21.294 13.7335C22.145 12.7395 23.282 14.0175 24.417 11.8865C25.554 9.75652 23.566 9.75852 23.566 9.75852C23.566 9.75852 22.004 10.4675 21.011 11.1765C20.016 11.8855 21.153 10.0405 20.301 9.18952C19.449 8.33652 20.869 7.48552 24.276 6.91752C27.683 6.34952 33.646 7.34452 49.263 7.48452C64.879 7.62652 67.86 1.37952 67.86 1.37952C67.86 1.37952 63.033 5.35552 49.121 6.06452C40.753 6.49152 35.067 5.07052 27.827 4.64352C20.587 4.21852 18.741 5.07052 16.611 7.20052C14.481 9.32952 13.062 7.90952 13.062 7.05752C13.062 6.20652 16.611 3.50952 21.721 3.08252C26.832 2.65752 30.807 3.79252 41.029 3.93452C51.251 4.07752 54.231 1.37952 54.231 1.37952C46.991 3.36752 36.059 2.51452 29.386 1.09552C22.714 -0.325478 16.468 -0.0404787 11.925 3.36752C7.38202 6.77552 6.81302 10.6085 6.81302 10.6085C6.81302 10.6085 4.25901 10.7505 2.98001 11.6025C1.70201 12.4535 -0.000976562 12.5965 -0.000976562 12.5965C-0.000976562 12.5965 0.424011 13.4475 2.98001 13.3055C5.53601 13.1645 6.67203 13.8735 6.67203 13.8735ZM12.634 19.8375C14.764 18.2745 16.751 20.6885 15.615 21.5415C14.48 22.3925 11.782 22.8195 11.925 24.0965C11.925 24.0975 10.505 21.3995 12.634 19.8375ZM15.472 46.5295C15.472 46.5295 15.532 45.9805 15.527 45.0995C15.361 46.0745 15.472 46.5295 15.472 46.5295ZM18.88 38.1515C19.023 35.8805 18.596 32.4735 18.596 32.4735C17.035 30.0585 14.337 38.0115 15.047 40.9935C15.429 42.5975 15.522 44.0735 15.527 45.0995C15.624 44.5285 15.815 43.7825 16.182 42.8385C17.177 40.2825 18.737 40.4245 18.88 38.1515ZM68.71 49.9375C62.037 45.5355 56.927 43.5465 51.815 36.5905C46.703 29.6335 47.13 25.3735 45.143 21.2555C43.155 17.1385 36.341 13.3055 32.791 12.4535C29.242 11.6015 27.68 11.1755 26.545 12.5945C25.408 14.0155 26.118 15.0105 26.118 15.0105C26.118 15.0105 26.97 20.2635 26.828 23.5275C26.686 26.7945 25.267 27.3615 23.847 29.2055C22.428 31.0515 23.137 34.3185 23.137 38.4365C23.137 42.5525 22.853 44.1145 22.853 44.1145C22.853 44.1145 22.853 44.1145 23.563 41.7005C24.272 39.2865 26.686 38.7185 29.241 33.0405C31.797 27.3615 26.97 19.2685 29.525 18.8415C32.08 18.4165 32.081 22.5345 31.796 29.0655C31.512 35.5945 28.957 37.5825 26.402 40.4235C23.847 43.2635 22.711 45.1105 21.15 50.6465C19.588 56.1825 24.131 57.8885 24.131 57.8885C24.131 57.8885 23.137 56.1845 22.853 53.7695C22.571 51.3555 23.847 47.6645 28.39 42.2685C32.933 36.8745 37.618 41.2755 37.618 41.2755C37.618 41.2755 32.791 42.4115 28.107 46.3865C23.422 50.3615 24.84 53.4865 25.977 55.9005C27.113 58.3145 24.698 60.5845 24.698 60.5845C24.698 60.5845 20.582 59.7325 18.879 56.7525C17.175 53.7695 18.169 51.4985 18.169 51.4985C17.602 51.9255 12.774 52.2085 10.219 51.6395C7.66402 51.0725 6.81201 49.9375 4.39801 50.5045C1.98601 51.0735 2.69503 52.9185 2.97903 56.1835C3.26303 59.4495 2.83704 63.4245 2.83704 66.8315C2.83704 70.2375 4.68301 71.0915 4.68301 71.0915C4.68301 71.0915 4.39802 73.2205 5.81802 75.4935C7.23902 77.7645 9.65201 78.4745 9.65201 78.4745L9.22504 68.9615L5.96002 69.1035C5.96002 69.1035 6.10202 67.1155 6.52802 64.2765C6.95302 61.4375 6.81201 57.7445 6.81201 57.7445C6.81201 57.7445 6.81203 57.7445 8.09003 56.8925C9.36903 56.0405 7.80603 55.0475 10.22 55.3315C12.633 55.6155 14.905 57.6035 17.176 59.3065C19.447 61.0105 23.564 62.5715 23.564 62.5715C23.564 62.5715 23.564 62.5715 20.015 65.4115C16.465 68.2505 14.053 71.2335 12.775 73.7885C11.497 76.3435 12.917 78.4755 15.897 78.1895C18.879 77.9055 22.712 78.0485 26.829 78.4755C30.947 78.9005 32.365 78.0485 32.365 78.0485C32.365 78.0485 33.927 76.4865 35.915 75.4915C37.903 74.4985 38.47 72.6525 38.47 72.6525C38.47 72.6525 37.051 71.9435 34.069 71.0915C31.088 70.2395 31.511 75.3505 31.511 75.3505C31.511 75.3505 16.889 76.4875 16.892 74.2155C16.892 73.1825 19.447 71.2345 23.564 68.8215C27.68 66.4075 31.089 64.2765 33.502 61.5805C35.915 58.8815 35.774 56.0415 37.477 56.4675C39.18 56.8945 37.62 60.1605 37.051 61.1545C36.483 62.1475 35.773 63.4265 35.773 63.4265L48.265 63.2835C51.672 52.0675 62.036 52.0675 66.579 52.6365C71.122 53.2035 74.956 57.1805 75.098 63.9955C75.24 70.8095 66.012 77.4815 60.191 72.0875C54.371 66.6915 61.185 63.8525 61.185 63.8525C56.215 70.9505 71.547 73.0805 71.974 63.5685C72.456 52.7735 61.185 54.3405 54.654 58.5985C48.123 62.8585 49.259 76.7725 58.488 79.7535C67.716 82.7365 76.09 78.6185 78.362 69.1055C80.635 59.5905 75.382 54.3395 68.71 49.9375ZM83.046 40.2835C76.798 39.1465 73.249 41.5595 73.249 41.5595C73.249 41.5595 73.817 37.4415 70.268 33.6095C65.288 28.2315 59.763 31.0525 59.763 31.0525C68.139 31.4785 67.146 36.1645 68.422 39.0035C69.701 41.8445 67.429 46.9545 67.429 46.9545L74.953 52.0665C75.237 47.9485 77.083 46.5285 81.767 44.2585C86.452 41.9845 90 45.6765 90 45.6765C90 45.6765 89.291 41.4185 83.046 40.2835Z" fill="#a82424"/>
</svg>