<svg width="31" height="31" viewBox="0 0 31 31" fill="none" xmlns="http://www.w3.org/2000/svg">
<path d="M29.3534 19.5155C30.7345 17.8276 32.6532 6.01196 23.062 2.02227C13.472 -1.96742 8.86853 4.01712 8.94464 6.47231C5.7222 7.62257 5.03107 11.2292 5.03107 11.2292C5.03107 11.2292 0.350243 13.531 0.503692 16.2931C0.657142 19.0552 4.03303 19.2086 4.03303 19.2086L5.05685 20.6154L5.26063 19.2086C5.26063 19.2086 10.3048 16.8811 10.5356 18.9165C10.7664 20.9494 6.10644 21.6638 6.10644 21.6638L5.15997 20.9739L5.44845 22.2617C5.44845 22.2617 4.4185 22.5857 4.87885 23.5813C5.79954 25.1158 8.86853 23.0436 8.86853 23.0436C8.86853 23.0436 6.49191 32.0137 13.3173 30.0262C9.09687 27.8779 12.9331 24.5781 12.9331 24.5781C12.9331 24.5781 13.7777 33.1713 22.1401 27.954C15.5417 28.6452 17.0541 25.3196 17.7674 24.5781C18.4794 23.8367 22.1401 20.0299 22.1401 20.0299C22.1401 20.0299 24.0588 22.8902 19.378 26.3974C25.516 28.0338 25.8229 16.832 25.8229 16.832C25.8229 16.832 27.2812 22.2027 23.4438 25.8082C32.1904 23.8907 27.8165 12.9184 27.8165 12.9184C27.8165 12.9184 29.4295 13.4536 29.3534 19.5155ZM6.25375 10.9223C6.10644 10.3662 6.52873 9.92431 6.96944 9.8482C7.41015 9.77209 9.01584 10.2459 9.4811 10.4951C9.94636 10.7443 6.40106 11.4784 6.25375 10.9223Z" fill="#A82424"/>
</svg>
