<svg width="31" height="29" viewBox="0 0 31 29" fill="none" xmlns="http://www.w3.org/2000/svg">
<path d="M28.8791 19.175L25.7788 9.51035H24.9931V8.9816C26.5297 8.60285 26.5559 7.08785 26.5559 7.08785C26.5559 7.08785 25.9737 7.77129 24.9931 8.0366V7.61848H24.38V8.13879C24.3547 8.13973 24.3312 8.14629 24.305 8.14723C22.9081 8.18098 22.2781 5.86348 20.5203 5.86348C18.8834 5.86348 17.0553 6.83754 15.8731 6.97254V4.33535C16.7094 4.20504 17.3488 3.49066 17.3488 2.61879C17.3506 1.65691 16.5688 0.875977 15.6059 0.875977C14.6441 0.875977 13.8631 1.65691 13.8631 2.61879C13.8631 3.53754 14.5775 4.28285 15.4803 4.35035V6.95285C14.2981 6.76629 12.5441 5.86348 10.9653 5.86348C9.2075 5.86348 8.57938 8.18098 7.18156 8.14723C7.06812 8.14348 6.96406 8.12566 6.85719 8.1116V7.61848H6.24406V7.96816C5.4125 7.66629 4.93156 7.08879 4.93156 7.08879C4.93156 7.08879 4.95781 8.43035 6.24406 8.90191V9.51035H5.45937L2.30469 19.176H0.5C0.5 19.176 1.79469 21.65 6.43156 21.65C11.0684 21.65 12.3631 19.176 12.3631 19.176H10.7422L7.64375 9.51129H6.85719V9.04629C6.98094 9.05941 7.11031 9.06691 7.25 9.06691C9.53469 9.06691 9.875 7.61848 11.1369 7.61848C12.2722 7.61848 13.6025 9.02848 15.2422 9.31348C15.3125 9.33316 15.6566 9.30973 15.5534 9.33504L15.5 14.751L14.4584 16.8603L14.4941 23.2147H11.6309V24.3388L9.32938 28.1235H22.4197L19.6072 24.2872V23.2129H17.1022V16.9166L16.0475 14.7004L16.0466 9.32191C16.1413 9.32098 16.1375 9.3416 16.2462 9.31254C17.8859 9.02754 19.2162 7.61754 20.3516 7.61754C21.6144 7.61754 21.9537 9.06598 24.2384 9.06598C24.2909 9.06598 24.3341 9.06035 24.3809 9.05848V9.50848H23.5972L20.4425 19.1732H18.6369C18.6369 19.1732 19.9316 21.6472 24.5684 21.6472C29.2053 21.6472 30.5 19.175 30.5 19.175H28.8791ZM6.24406 19.175H2.95063L5.90375 10.1253H6.24406V19.175ZM7.19656 10.1244L10.0991 19.1732H6.85719V10.1244H7.19656ZM24.3809 19.175H21.0866L24.0397 10.1253H24.38L24.3809 19.175ZM24.9941 19.175V10.1244H25.3325L28.235 19.1732L24.9941 19.175Z" fill="#A82424"/>
</svg>
