<svg width="30" height="29" viewBox="0 0 30 29" fill="none" xmlns="http://www.w3.org/2000/svg">
<path d="M6.27891 4.39469L4.21875 3.25C4.21875 3.25 0.46875 7.46875 0.46875 14.5C0.46875 16.3103 1.17 18.8191 2.325 21.2172C1.7325 19.2494 1.40625 17.0917 1.40625 14.9688C1.40625 10.1252 3.31313 6.23031 6.27891 4.39469Z" fill="#A82424"/>
<path d="M13.125 26.2188C13.125 26.2188 14.5312 24.3438 15.4688 23.4062C14.0625 22.9375 11.25 25.3469 10.3125 26.7531C7.96875 25.8156 7.5 23.4062 7.5 22.4688C7.5 20.6716 8.26547 18.8758 9.14344 17.1522C8.49797 15.2373 8.87156 12.8153 9.69984 11.2188H9.84375C9.95953 11.2188 10.2797 11.2173 10.7053 11.1672C9.72281 13.083 9.44109 15.7684 10.245 17.3758C10.7138 16.4383 12.12 15.5008 13.0575 15.032C12.12 13.6258 11.7188 11.9125 11.7188 10.975L11.7173 10.9727C12.967 10.6384 14.4572 9.84156 15 7.9375C14.5312 6.53125 12.6562 4.1875 10.3125 4.1875C5.625 4.1875 2.34375 8.875 2.34375 14.9688C2.34375 21.0625 5.15625 28.0938 10.3125 28.5625C13.5797 28.8578 15 28.0938 16.4062 26.6875C14.5312 25.75 13.125 26.2188 13.125 26.2188ZM10.7812 6.12578C11.2992 6.12578 11.7188 6.54531 11.7188 7.06328C11.7188 7.58125 11.2992 8.00078 10.7812 8.00078C10.2633 8.00078 9.84375 7.58125 9.84375 7.06328C9.84375 6.54578 10.2633 6.12578 10.7812 6.12578ZM4.6875 15.97H3.75V15.0325H4.6875V15.97ZM4.6875 14.095H3.75V13.1575H4.6875V14.095ZM5.15625 12.22H4.21875V11.2825H5.15625V12.22ZM6.09375 8.93875H7.03125C7.03125 9.97281 7.87219 10.8137 8.90625 10.8137V11.7512C7.35516 11.7512 6.09375 10.4894 6.09375 8.93875Z" fill="#A82424"/>
<path d="M23.7227 24.6057L25.7828 25.7504C25.7828 25.7504 29.5328 21.5316 29.5328 14.5004C29.5328 12.6901 28.8316 10.1813 27.6766 7.7832C28.2691 9.75102 28.5953 11.9087 28.5953 14.0316C28.5953 18.8752 26.6884 22.7701 23.7227 24.6057Z" fill="#A82424"/>
<path d="M16.875 2.78167C16.875 2.78167 15.4688 4.65667 14.5312 5.59417C15.9375 6.06292 18.75 3.65355 19.6875 2.2473C22.0312 3.1848 22.5 5.59417 22.5 6.53167C22.5 8.32886 21.7345 10.1246 20.8566 11.8482C21.502 13.7631 21.1284 16.1851 20.3002 17.7817H20.1562C20.0405 17.7817 19.7203 17.7831 19.2947 17.8332C20.2772 15.9175 20.5589 13.232 19.755 11.6246C19.2863 12.5621 17.88 13.4996 16.9425 13.9684C17.88 15.3746 18.2812 17.0879 18.2812 18.0254L18.2827 18.0278C17.033 18.362 15.5428 19.1589 15 21.0629C15.4688 22.4692 17.3438 24.8129 19.6875 24.8129C24.375 24.8129 27.6562 20.1254 27.6562 14.0317C27.6562 7.93792 24.8438 0.90667 19.6875 0.43792C16.4203 0.142608 15 0.90667 13.5938 2.31292C15.4688 3.25042 16.875 2.78167 16.875 2.78167ZM19.2188 22.8746C18.7008 22.8746 18.2812 22.4551 18.2812 21.9371C18.2812 21.4192 18.7008 20.9996 19.2188 20.9996C19.7367 20.9996 20.1562 21.4192 20.1562 21.9371C20.1562 22.4546 19.7367 22.8746 19.2188 22.8746ZM25.3125 13.0304H26.25V13.9679H25.3125V13.0304ZM25.3125 14.9054H26.25V15.8429H25.3125V14.9054ZM24.8438 16.7804H25.7812V17.7179H24.8438V16.7804ZM23.9062 20.0617H22.9688C22.9688 19.0276 22.1278 18.1867 21.0938 18.1867V17.2492C22.6448 17.2492 23.9062 18.511 23.9062 20.0617Z" fill="#A82424"/>
</svg>
