<svg width="28" height="31" viewBox="0 0 28 31" fill="none" xmlns="http://www.w3.org/2000/svg">
<path d="M24.712 5.40781L24.9389 5.92437L22.5408 6.9725C22.3261 6.09875 23.1127 5.82406 22.312 4.15906C21.4308 2.32156 18.2883 3.61531 17.0583 0.5C17.0527 0.530938 17.0489 0.55625 17.0433 0.585313L17.0245 0.515L15.9473 4.51906L15.2639 4.65688L15.2236 4.0325L14.6752 4.68781L14.2608 4.07562L13.9167 4.86219L13.1789 4.23781L13.4217 5.09938L12.4917 5.05531L13.0167 5.56813C13.0167 5.56813 12.1205 5.81938 12.0755 5.83063C12.0305 5.84375 12.6577 6.25531 12.6577 6.25531L12.0511 6.755L12.6417 6.96875L11.9058 7.55281L12.7542 7.74219L12.3127 8.39188L12.9436 8.4125L12.953 9.32187L13.7564 8.84094C14.0489 9.08563 14.3358 9.22344 14.2945 9.3425C14.2711 9.41187 14.6498 10.1009 14.0845 10.1047C13.5202 10.1084 13.3167 10.0353 13.1817 10.3916L13.1761 10.3934L13.1798 10.3953C13.1723 10.4178 13.1592 10.43 13.1527 10.4544C13.0055 11.1369 14.332 14.8372 13.9983 15.3303C13.8389 15.5647 13.1648 15.4025 11.0648 15.3734C8.96484 15.3434 7.56703 15.9153 7.17797 15.44C7.17797 15.44 6.71109 14.0291 4.72547 14.5738C2.73891 15.1184 4.74516 20.0394 0.902344 19.205C5.25516 23.9919 5.58328 16.25 6.80578 17.2353C8.02922 18.2225 7.26797 19.1619 6.88922 19.4553C6.51047 19.7478 6.00234 20.1228 5.61516 20.5306C5.22891 20.9412 5.37797 24.1138 5.16234 24.5591C4.94672 25.0044 4.41797 25.1797 4.41797 25.1797C4.41797 25.1797 4.53609 25.6409 4.65984 26.5081C5.75953 27.1372 5.95078 26.0309 5.97984 25.6813C6.00703 25.3316 6.32016 21.6659 6.68391 21.2553C7.04672 20.8466 8.20266 20.8447 8.20266 20.8447C8.20266 20.8447 8.69203 22.2312 8.54484 22.8088C8.39578 23.3881 7.12922 25.7525 7.62703 26.5362C8.12578 27.32 8.00109 29.9328 8.18016 29.9328C8.35922 29.9328 9.13734 29.9591 9.85547 29.9591C10.1433 29.2756 9.23485 28.7844 9.23485 28.7844C9.23485 28.7844 8.90859 26.4012 8.78484 26.0094C8.54766 25.2678 9.71672 22.6147 10.0439 21.9912C10.3711 21.3687 13.4845 21.5413 14.6977 21.6434C15.9117 21.7437 16.957 25.3934 16.957 25.3934C16.957 25.3934 15.7158 29.9731 15.9652 30.5C16.1452 30.5 17.3133 30.4541 17.7652 30.5C18.1186 29.855 17.1642 29.2306 17.1642 29.2306L18.0802 25.4384C18.0802 25.4384 17.9152 22.6756 17.2964 21.7484C18.3989 22.5303 20.4492 21.3838 21.0989 21.5544C21.7439 21.725 21.6623 24.5075 21.4533 24.6866C21.2442 24.8656 20.9508 25.3597 20.9508 25.3597C20.9508 25.3597 21.4045 26.2606 21.6558 26.7659C22.6383 26.6216 22.2005 25.3691 22.2005 25.3691C22.2005 25.3691 22.5755 21.7587 22.4405 21.1812C22.3036 20.6028 19.0673 20.1584 19.0673 20.1584C19.0673 20.1584 19.1677 16.5153 18.4898 15.9697C18.1289 15.68 17.8777 14.1969 17.902 12.77L23.8561 16.0316L23.6273 15.4522C22.7977 12.8234 25.4386 11.4613 24.7383 9.69031C23.9873 7.79469 23.1708 8.46969 22.6814 7.34656C22.6777 7.34281 22.6758 7.33812 22.6739 7.33437L22.6777 7.33344C22.6739 7.32312 22.6673 7.31094 22.6617 7.29969L25.0814 6.24219L25.4058 6.98281L27.1017 5.16875L24.712 5.40781ZM17.1108 2.18656C17.7886 3.8825 20.5955 3.44187 21.1345 4.67469C21.727 6.02938 21.2414 6.35656 21.5527 7.40375L21.5142 7.42156C20.1867 7.89781 16.4573 9.44 16.3392 9.45031C16.3392 9.45031 16.568 9.37906 16.3392 9.44844C16.1105 9.51875 16.2483 8.96656 16.2933 8.92063C17.1323 8.7125 17.3367 8.61031 16.9711 8.09094C16.9908 8.06 17.1117 7.92125 17.1248 7.84438C17.138 7.76656 17.0592 7.76938 17.0592 7.76938C17.0592 7.76938 17.1155 7.75625 17.1361 7.68125C17.1577 7.60812 16.9786 7.39062 16.9786 7.39062C16.9786 7.39062 17.2392 7.25375 17.2711 7.13281C17.302 7.01187 16.5792 6.53 16.567 6.41C16.553 6.29094 16.6298 6.20937 16.6495 6.17375C16.6673 6.13812 16.6317 5.82781 16.2005 5.44344L17.1108 2.18656ZM23.5542 10.2078C24.1008 11.4556 21.8067 13.2434 22.6767 14.9131L17.918 12.2975C17.9873 11.2062 18.2405 10.2331 18.758 9.98C20.017 9.36781 21.1645 8.37688 21.9023 8.58219C21.9998 8.56813 22.0805 8.53344 22.1536 8.48375C22.6083 8.99 23.0733 9.10812 23.5542 10.2078Z" fill="#A82424"/>
</svg>
