<svg width="28" height="31" viewBox="0 0 28 31" fill="none" xmlns="http://www.w3.org/2000/svg">
<path d="M27.1836 6.71094C27.1836 3.31836 24.4238 0.5 21.0312 0.5H17.8796C18.1497 0.689668 19.92 3.13672 23.668 3.13672C24.1538 3.13672 24.5469 3.52982 24.5469 4.01562C24.5469 4.50143 24.1538 4.89453 23.668 4.89453C19.2262 4.89453 16.8815 1.93338 16.7057 1.8118C16.7063 1.81396 16.7063 1.81619 16.707 1.81836C17.4129 4.9925 20.4883 8.41443 24.6699 9.17193C23.8789 10.332 22.543 11.1055 21.0312 11.1055H19.5884C18.586 7.91105 16.5256 7.58984 15.7578 7.58984C14.9901 7.58984 12.9296 7.91105 11.9272 11.1055H10.4844C8.97266 11.1055 7.63672 10.332 6.8457 9.17193C10.4008 8.51768 13.5813 5.90393 14.7668 1.85498C14.5595 1.99754 12.3332 4.89453 7.84766 4.89453C7.36186 4.89453 6.96875 4.50143 6.96875 4.01562C6.96875 3.52982 7.36186 3.13672 7.84766 3.13672C11.5106 3.13672 13.4387 0.638633 13.6361 0.5H10.4844C7.0918 0.5 4.33203 3.31836 4.33203 6.71094C4.33203 9.98035 7.00619 12.8627 10.4844 12.8627H11.5419C11.4502 13.4943 11.3957 14.2094 11.3779 15.0004L7.10434 17.7144C6.69494 17.9745 6.57307 18.5178 6.83398 18.9272C7.09654 19.3406 7.64328 19.4563 8.04676 19.1976L11.4205 17.055C11.4627 17.6779 11.5283 18.3375 11.6202 19.0116L8.98924 20.6824C8.57984 20.9425 8.45797 21.4858 8.71889 21.8952C8.98145 22.3086 9.52818 22.4243 9.93166 22.1656L11.9403 20.8899C12.0679 21.5053 12.2178 22.111 12.3907 22.6873L10.8741 23.6504C10.4647 23.9105 10.3428 24.4538 10.6037 24.8632C10.8663 25.2766 11.413 25.3923 11.8165 25.1336L13.01 24.3756C13.4901 25.4405 14.0862 26.2589 14.801 26.656C14.5243 27.8159 13.4857 28.7422 12.2422 28.7422H6.96875C5.5148 28.7422 4.33203 27.5008 4.33203 26.0469V23.2483C5.35285 22.8842 6.08984 21.9178 6.08984 20.7734C6.08984 20.3125 5.96885 19.8576 5.73793 19.456L4.21443 16.8184C3.90031 16.2742 3.00594 16.2742 2.69182 16.8184L1.16744 19.4577C0.937402 19.8576 0.816406 20.3125 0.816406 20.7734C0.816406 21.9178 1.5534 22.8842 2.57422 23.2483V26.0469C2.57422 28.4699 4.54572 30.5 6.96875 30.5H12.2422C14.4331 30.5 16.2393 28.8247 16.5682 26.7246C17.3482 26.3637 17.9932 25.512 18.5054 24.3761L19.6983 25.1336C20.1022 25.3926 20.6489 25.2761 20.9111 24.8633C21.172 24.4539 21.0501 23.9105 20.6407 23.6505L19.1248 22.6878C19.2977 22.1115 19.4476 21.5058 19.5753 20.8904L21.5831 22.1656C21.9871 22.4246 22.5337 22.3081 22.7959 21.8953C23.0568 21.4859 22.935 20.9425 22.5256 20.6825L19.8954 19.0121C19.9872 18.338 20.0531 17.6785 20.0952 17.0556L23.468 19.1976C23.8719 19.4566 24.4186 19.3401 24.6808 18.9273C24.9417 18.5179 24.8198 17.9745 24.4104 17.7145L20.1378 15.001C20.1198 14.2099 20.0654 13.495 19.9737 12.8633H21.0312C24.5018 12.8633 27.1836 9.9885 27.1836 6.71094Z" fill="#A82424"/>
</svg>
