<svg width="30" height="27" viewBox="0 0 30 27" fill="none" xmlns="http://www.w3.org/2000/svg">
<path d="M26.0371 11.6085C26.0371 11.6085 34.3538 5.88226 26.8879 0.428711C27.1431 1.40272 27.2544 2.2611 27.2642 3.02678C27.9906 3.318 28.7683 3.84264 28.8326 4.77192C28.2982 4.13604 27.7332 3.75647 27.2402 3.52851C27.2151 4.01497 27.1442 4.46107 27.034 4.86572C27.6601 5.18203 28.2491 5.68921 28.2949 6.49633C27.8281 5.92807 27.3394 5.57141 26.8901 5.33364C26.7472 5.71975 26.5661 6.06005 26.3633 6.36981C26.8214 6.76029 27.1769 7.28601 27.1148 7.96661C26.7941 7.43544 26.4363 7.05369 26.0884 6.76247C25.8288 7.08314 25.5409 7.35363 25.2387 7.59032C25.5965 8.13458 25.8201 8.79883 25.5169 9.47834C25.3685 8.79883 25.1177 8.28183 24.8472 7.87281C24.4076 8.16512 23.9582 8.38326 23.534 8.54469C23.7445 9.23729 23.7946 10.0521 23.2111 10.6552C23.3234 9.86445 23.2362 9.21548 23.0868 8.70393C22.2458 8.96679 21.6088 9.01806 21.6088 9.01806C21.6088 9.01806 18.9519 7.74302 15.0024 7.74302C11.0529 7.74302 8.3938 9.01806 8.3938 9.01806C8.3938 9.01806 7.75464 8.96679 6.9137 8.70284C6.76318 9.21439 6.67811 9.86336 6.78827 10.6541C6.20474 10.051 6.25382 9.2362 6.46651 8.5436C6.04222 8.38217 5.59394 8.16294 5.1522 7.87172C4.88171 8.28074 4.63084 8.79774 4.48469 9.47725C4.18147 8.79774 4.40507 8.13349 4.76282 7.58923C4.46178 7.35363 4.17274 7.08314 3.91316 6.76247C3.56304 7.0526 3.20528 7.43326 2.88571 7.96552C2.82463 7.28492 3.18129 6.7592 3.63939 6.36763C3.43433 6.06005 3.25328 5.71866 3.11039 5.33364C2.66102 5.57032 2.17238 5.92807 1.70556 6.49633C1.75137 5.68921 2.34035 5.18203 2.96751 4.86572C2.85626 4.46107 2.78645 4.01606 2.76027 3.52851C2.26509 3.75538 1.70119 4.13604 1.16675 4.77192C1.23001 3.84154 2.00877 3.318 2.73519 3.02678C2.74391 2.2611 2.85407 1.40272 3.11039 0.428711C-4.35443 5.88226 3.96224 11.6085 3.96224 11.6085C3.96224 11.6085 0.451239 11.506 1.30308 12.9043C2.15493 14.3036 4.57522 15.5285 5.66593 15.5972C6.75664 15.6649 8.15384 14.6756 8.15384 14.6756C8.15384 14.6756 8.52904 19.8565 10.9493 21.2875C10.3014 21.4238 10.0975 21.6965 10.1138 22.208C10.1302 22.7196 10.3713 23.6696 10.5916 23.6903C11.018 22.8723 12.8755 24.4407 11.6485 25.0199C12.4251 26.3026 14.0971 26.5283 14.8214 26.5632L14.8235 26.5709C14.8235 26.5709 14.8966 26.573 15.0002 26.5698C15.1028 26.573 15.1769 26.5709 15.1769 26.5709L15.1791 26.5632C15.9033 26.5283 17.5743 26.3026 18.3531 25.0199C17.126 24.4407 18.9813 22.8723 19.41 23.6903C19.6292 23.6674 19.8703 22.7185 19.8877 22.208C19.9062 21.6976 19.7001 21.4238 19.0522 21.2875C21.4725 19.8565 21.8466 14.6756 21.8466 14.6756C21.8466 14.6756 23.2438 15.6627 24.3345 15.5972C25.4252 15.5296 27.8455 14.3015 28.6974 12.9043C29.5492 11.5071 26.0371 11.6085 26.0371 11.6085ZM10.2676 18.2695C9.50087 18.6272 8.69919 16.9595 8.59776 15.9877C8.49632 15.0137 8.97296 14.8632 9.17693 14.6418C9.38089 14.4203 11.0344 17.9117 10.2676 18.2695ZM21.4016 15.9877C21.298 16.9617 20.4985 18.6294 19.7317 18.2717C18.9661 17.915 20.6174 14.4225 20.8224 14.6439C21.0253 14.8632 21.503 15.017 21.4016 15.9877Z" fill="#A82424"/>
</svg>
