<svg width="21" height="31" viewBox="0 0 21 31" fill="none" xmlns="http://www.w3.org/2000/svg">
<path d="M20.4333 9.25089C19.4171 5.54881 17.9762 0.370224 10.3255 0.501469C8.86864 0.981455 14.4372 1.50081 13.9788 3.31951C11.4214 1.84487 9.91579 0.861458 8.1121 1.02552C6.30934 1.18957 5.53499 2.78421 5.59874 3.9373C7.05651 4.70415 8.93801 10.748 9.54362 12.0258C10.1492 13.3036 11.2029 15.2554 12.2838 15.846C13.3629 16.4357 10.7867 20.1874 8.59583 20.283C6.40496 20.3815 0.881386 22.7683 0.214844 25.8872C1.56105 24.3076 6.85682 21.5336 9.13863 21.6161C11.4214 21.7014 13.6076 19.0831 13.9722 18.3369C14.0716 21.7099 10.7211 23.0261 8.36147 23.0833C4.96688 23.1414 -0.129208 26.3747 0.476398 28.3537C1.112 26.6513 5.37187 24.6535 8.18991 24.5213C11.0089 24.3901 13.6272 22.9389 14.9688 21.7502C14.3182 24.3967 11.8723 25.3473 9.05426 25.8488C6.23622 26.3522 0.574833 27.9066 0.66108 30.4987C1.75511 28.8881 6.77526 27.3534 12.1929 27.0028C17.6134 26.6522 22.1048 15.7072 20.4333 9.25089ZM14.1072 2.05392C14.1072 2.05392 18.5508 4.53541 16.3534 8.51778C16.8409 4.61697 14.1072 2.05392 14.1072 2.05392ZM17.2131 4.82602C17.2131 4.82602 22.0532 11.4943 16.3506 14.7707C19.8783 10.314 17.2131 4.82602 17.2131 4.82602Z" fill="#A82424"/>
<path d="M3.31208 13.4788C3.35614 13.8716 3.09834 14.3797 3.03365 14.6582C2.96897 14.9366 2.59117 14.8372 2.64085 15.231C2.6896 15.6238 3.1649 15.7738 3.1649 15.7738C3.1649 15.7738 2.80491 15.9875 2.82085 16.2819C2.90335 16.79 3.83613 16.3644 3.90175 16.5612C3.96738 16.7572 3.95238 16.6006 3.89425 17.0075C3.83613 17.4143 3.09928 17.5437 3.54176 18.5759C4.123 19.9314 10.2597 19.1496 11.7343 16.4309C6.45823 11.677 6.34386 4.69755 5.2939 4.82973C4.24487 4.95816 3.32708 9.34928 3.29521 10.3655C3.2624 11.3808 2.19743 12.0201 2.06525 12.8067C1.93494 13.5932 3.04865 13.266 3.31208 13.4788ZM3.60645 9.85364C3.67301 9.66895 5.16265 10.1377 5.16265 10.3496C5.16265 10.5633 4.06487 10.5952 3.80332 10.5633C3.71145 10.5511 3.38989 10.4367 3.60645 9.85364Z" fill="#A82424"/>
</svg>
